<?xml version="1.0" encoding="UTF-8" standalone="no"?>
<!-- Created with Inkscape (http://www.inkscape.org/) -->

<svg
   width="16.947664"
   height="660.17444"
   viewBox="0 0 4.4840694 174.67115"
   version="1.1"
   id="svg5086640"
   xml:space="preserve"
   inkscape:version="1.2.1 (9c6d41e410, 2022-07-14)"
   sodipodi:docname="text_editor_icons_dark.svg"
   xmlns:inkscape="http://www.inkscape.org/namespaces/inkscape"
   xmlns:sodipodi="http://sodipodi.sourceforge.net/DTD/sodipodi-0.dtd"
   xmlns="http://www.w3.org/2000/svg"
   xmlns:svg="http://www.w3.org/2000/svg"><sodipodi:namedview
     id="namedview5086642"
     pagecolor="#646464"
     bordercolor="#000000"
     borderopacity="0.25"
     inkscape:showpageshadow="2"
     inkscape:pageopacity="0.0"
     inkscape:pagecheckerboard="0"
     inkscape:deskcolor="#d1d1d1"
     inkscape:document-units="px"
     showgrid="false"
     inkscape:lockguides="true"
     inkscape:zoom="3.9085068"
     inkscape:cx="-26.352775"
     inkscape:cy="334.3988"
     inkscape:window-width="1920"
     inkscape:window-height="1057"
     inkscape:window-x="1912"
     inkscape:window-y="-8"
     inkscape:window-maximized="1"
     inkscape:current-layer="layer1" /><defs
     id="defs5086637" /><g
     inkscape:label="Layer 1"
     inkscape:groupmode="layer"
     id="layer1"
     transform="translate(0.07443989,0.03768118)"><path
       id="path5122579"
       style="fill:#646464;fill-opacity:1;stroke:none;stroke-width:0.0407025;stroke-opacity:1"
       d="m 2.1351487,127.15813 a 2.0046656,2.0046656 0 0 0 -2.00452884,2.00453 2.0046656,2.0046656 0 0 0 2.00452884,2.00504 2.0046656,2.0046656 0 0 0 2.0050459,-2.00504 2.0046656,2.0046656 0 0 0 -2.0050459,-2.00453 z m 0.6671427,0.96118 a 0.36175948,0.36175948 0 0 1 0.3617352,0.36174 0.36175948,0.36175948 0 0 1 -0.3617352,0.36173 0.36175948,0.36175948 0 0 1 -0.361735,-0.36173 0.36175948,0.36175948 0 0 1 0.361735,-0.36174 z m -1.4118001,0.0119 a 0.36175948,0.36175948 0 0 1 0.361735,0.36173 0.36175948,0.36175948 0 0 1 -0.361735,0.36174 0.36175948,0.36175948 0 0 1 -0.361735,-0.36174 0.36175948,0.36175948 0 0 1 0.361735,-0.36173 z m -0.39170744,1.34927 H 3.2720306 a 1.1376733,1.1376733 0 0 1 0.00103,0.0315 1.1376733,1.1376733 0 0 1 -1.1373982,1.1374 1.1376733,1.1376733 0 0 1 -1.13791504,-1.1374 1.1376733,1.1376733 0 0 1 0.00103,-0.0315 z"
       inkscape:export-filename="smiley face.svg"
       inkscape:export-xdpi="88.286278"
       inkscape:export-ydpi="88.286278" /><path
       style="fill:#646464;fill-opacity:1;stroke-width:0.0164316"
       d="M 2.8521754,8.2135837 C 2.7027914,8.1638678 2.6198678,8.1130361 2.511709,8.0048773 2.3255136,7.8186813 2.2364406,7.557593 2.2747513,7.3103099 2.3318519,6.9417411 2.6175247,6.6549269 2.9836276,6.5985998 3.3738549,6.538564 3.7694419,6.7895277 3.8876058,7.1720982 c 0.04444,0.1438843 0.044077,0.3573588 -8.761e-4,0.502832 -0.067853,0.2196822 -0.2558432,0.4232695 -0.4740309,0.51336 -0.144784,0.059779 -0.4196499,0.072184 -0.5605466,0.025296 z M 3.2465327,7.7096858 V 7.5700176 H 3.3862006 3.5258688 V 7.4221337 7.2742497 H 3.3862006 3.2465327 V 7.1345815 6.9949134 H 3.0986487 2.9507648 V 7.1345815 7.2742497 H 2.8110966 2.6714286 v 0.147884 0.1478839 h 0.139668 0.1396682 v 0.1396682 0.1396687 h 0.1478839 0.147884 z M 0.79194986,7.66676 C 0.60828726,7.6236405 0.40690623,7.4579254 0.31735948,7.2762159 0.26984659,7.1798083 0.26361331,7.1504663 0.25861292,6.9999063 0.25223574,6.8077674 0.28408413,6.6814057 0.37438815,6.5405322 0.40246904,6.4967244 0.59620383,6.2907853 0.80490826,6.0828842 1.2180004,5.6713837 1.2843621,5.6225095 1.4982636,5.5722462 c 0.197186,-0.046337 0.4046653,-0.00742 0.5781757,0.108445 0.1141298,0.076213 0.1601346,0.1527166 0.145621,0.2421563 -0.0106,0.065313 -0.046856,0.1113864 -0.1156515,0.1469615 C 2.0421738,6.103029 1.9776329,6.087532 1.8692437,6.012884 1.7883017,5.957135 1.7701327,5.951503 1.6712114,5.951503 c -0.073262,0 -0.1304296,0.010259 -0.1746407,0.03136 C 1.4563547,6.0020511 1.286291,6.1586609 1.0584129,6.3863549 0.70257591,6.7419045 0.68474861,6.7627259 0.6583198,6.8536369 0.58596955,7.102514 0.74860196,7.3086783 0.99934226,7.285942 1.1245536,7.2745899 1.1838654,7.2349683 1.4180711,7.006246 l 0.1844055,-0.1800893 0.086716,0.038152 c 0.068036,0.029934 0.1175454,0.038375 0.2298511,0.039189 l 0.1431366,0.00107 -0.077409,0.078998 C 1.6624166,7.3125267 1.4264704,7.5358568 1.3606169,7.574339 1.1929135,7.6723381 0.96998246,7.7085779 0.79194866,7.6667832 Z M 1.7430453,6.6760705 C 1.5706526,6.6213168 1.4058174,6.4956402 1.3840773,6.4023743 c -0.016603,-0.071243 0.018493,-0.1615834 0.076532,-0.1969709 0.0817,-0.049817 0.1527041,-0.041104 0.2742201,0.033657 0.09379,0.057701 0.1188198,0.065664 0.2053944,0.065356 0.1664879,-5.927e-4 0.2079391,-0.029802 0.6008288,-0.4233827 0.1958656,-0.1962099 0.3691508,-0.3822913 0.3850781,-0.4135132 0.015928,-0.031223 0.032224,-0.1014674 0.03621,-0.1561 C 2.9715843,5.1848318 2.9251603,5.0868156 2.8220036,5.0151289 2.7611605,4.9728479 2.7359584,4.9657071 2.649472,4.9662391 2.584392,4.9666429 2.5251467,4.9780735 2.4837198,4.9982191 2.4482605,5.0154669 2.3262571,5.1190916 2.2125996,5.228499 L 2.0059491,5.4274218 1.909754,5.3884827 C 1.840758,5.3605517 1.7768812,5.3486917 1.683843,5.3465397 1.612499,5.3449197 1.5541175,5.3392497 1.5541049,5.3339917 c -5.25e-5,-0.022117 0.5900902,-0.587481 0.6629436,-0.6351073 0.1390474,-0.0909 0.266247,-0.1232232 0.4589185,-0.1166187 0.1492051,0.00513 0.1800728,0.011653 0.2760199,0.058459 0.2960966,0.14444 0.460519,0.4772813 0.3939659,0.7975073 C 3.3020008,5.6497148 3.2491228,5.720553 2.807722,6.159276 2.3849085,6.5795236 2.3380766,6.6158987 2.1467431,6.6726676 2.0412441,6.7039716 1.8363188,6.7056986 1.743044,6.6760476 Z"
       id="path5086670" /><path
       style="fill:#646464;fill-opacity:1;stroke-width:0.00679347"
       d="m 1.2680058,12.674102 c -0.27858772,-0.0598 -0.49344662,-0.26371 -0.56377563,-0.535029 -0.0293472,-0.113218 -0.029224,-0.257483 3.1728e-4,-0.370404 0.0329016,-0.125767 0.0644303,-0.176624 0.34217425,-0.551941 0.1409922,-0.190522 0.2599238,-0.348678 0.2642925,-0.351457 0.031369,-0.01996 0.065687,0.0128 0.065687,0.0627 0,0.08645 0.039667,0.231759 0.089316,0.327191 0.018758,0.03605 0.026367,0.05809 0.023646,0.06847 -0.00221,0.0084 -0.078927,0.116196 -0.1704874,0.239498 -0.09156,0.123302 -0.1729117,0.237196 -0.1807795,0.253098 -0.06031,0.121893 -0.036855,0.261706 0.060181,0.358741 0.1091085,0.109109 0.2796396,0.119072 0.4059888,0.02372 0.026425,-0.01994 0.1086892,-0.126455 0.360054,-0.466186 0.1791914,-0.242187 0.3315374,-0.449627 0.3385467,-0.46098 0.071768,-0.116229 0.046764,-0.283881 -0.056596,-0.379576 -0.050625,-0.04687 -0.09939,-0.07099 -0.1674139,-0.08281 -0.055077,-0.0095 -0.070803,-0.02011 -0.070515,-0.04725 8.15e-5,-0.0077 0.053902,-0.08659 0.1196024,-0.175332 0.1121727,-0.15151 0.1207566,-0.161334 0.1408165,-0.161161 0.050782,4.37e-4 0.1829591,0.07578 0.2673837,0.152415 0.092653,0.0841 0.17529,0.223045 0.2103504,0.353675 0.016356,0.06094 0.018193,0.07943 0.018193,0.183263 0,0.103355 -0.00195,0.122626 -0.01802,0.183425 -0.035879,0.135245 -0.060688,0.174257 -0.4190543,0.658967 -0.179563,0.242867 -0.3483658,0.465608 -0.3751169,0.494981 -0.1073323,0.11785 -0.2454688,0.194223 -0.406573,0.224783 -0.075504,0.01432 -0.2044541,0.01301 -0.278215,-0.0028 z M 0.72792797,10.710907 c -0.0377953,-0.01563 -0.0569681,-0.06108 -0.0414437,-0.09823 0.0165784,-0.03967 0.0329956,-0.04539 0.17945201,-0.06251 0.18344502,-0.02144 0.20112482,-0.02118 0.22561672,0.0034 0.02527,0.02526 0.031017,0.04951 0.01914,0.08071 -0.015426,0.04053 -0.033293,0.04632 -0.20273912,0.06571 -0.16896032,0.01934 -0.16106419,0.01885 -0.18002704,0.011 z M 2.71056,10.5299 c -0.010929,-0.01667 -0.010886,-0.0194 7.2e-4,-0.04925 0.054158,-0.139306 0.071671,-0.221787 0.071671,-0.337446 0,-0.06307 0.00205,-0.07889 0.011891,-0.09025 0.00649,-0.0076 0.1279482,-0.07593 0.2697994,-0.1519061 C 3.2763959,9.787625 3.3286735,9.7567752 3.3567603,9.7286581 3.5512393,9.5339749 3.413135,9.201705 3.1381262,9.2026174 3.1008532,9.2027417 3.0722382,9.2073774 3.0411052,9.2183134 3.0168152,9.2268534 2.7829526,9.3486496 2.5214046,9.488984 2.0922305,9.7192574 2.041738,9.748103 2.0035769,9.7848109 1.8644705,9.9186177 1.8813992,10.138957 2.0397759,10.255955 c 0.031648,0.02338 0.036657,0.03018 0.036657,0.04981 0,0.01251 -0.00386,0.02593 -0.00857,0.02985 -0.022679,0.01882 -0.341168,0.184762 -0.3546133,0.184762 -0.0096,0 -0.026724,-0.01214 -0.045518,-0.03227 -0.070111,-0.07508 -0.1299133,-0.186692 -0.1603163,-0.299211 -0.015879,-0.05876 -0.017839,-0.07849 -0.01803,-0.181424 -1.786e-4,-0.096545 0.00221,-0.1250933 0.014545,-0.1740305 0.044875,-0.1779882 0.1579789,-0.340945 0.3028147,-0.4362813 0.074767,-0.049218 1.0111497,-0.5506283 1.0688475,-0.5723458 0.1943265,-0.073141 0.39503,-0.063747 0.5833169,0.027317 0.085281,0.041241 0.1287536,0.072125 0.1987263,0.1411625 0.1087052,0.107247 0.181295,0.2486819 0.2056436,0.4006664 0.01201,0.074946 0.00508,0.2315954 -0.013231,0.2989055 -0.045802,0.1684169 -0.1579063,0.3294102 -0.2924984,0.4200602 -0.076222,0.05134 -0.796505,0.434625 -0.8167555,0.434625 -0.012594,0 -0.02242,-0.0057 -0.030225,-0.01765 z M 1.0496714,10.350882 c -0.00986,-0.003 -0.087096,-0.0413 -0.17163202,-0.085 -0.12172929,-0.06292 -0.15580152,-0.0835 -0.16379515,-0.09896 -0.0230374,-0.04455 -0.002497,-0.0953 0.0442327,-0.109304 l 0.0278024,-0.0083 0.1630873,0.08092 c 0.089698,0.04451 0.16911807,0.08735 0.17648907,0.09518 0.05308,0.0565 -0.00264,0.148276 -0.076184,0.125478 z M 1.2106688,10.049929 C 1.1979237,10.03779 1.1414128,9.9625404 1.0850893,9.8827171 1.0092857,9.7752864 0.98268308,9.7324028 0.98268308,9.7176383 c 0,-0.062525 0.071623,-0.1027931 0.11797612,-0.066331 0.014983,0.011783 0.1537385,0.2002072 0.2171639,0.2948955 0.040547,0.060537 0.00953,0.1258002 -0.059767,0.1258002 -0.018037,0 -0.030127,-0.0056 -0.047387,-0.02207 z"
       id="path5086691"
       sodipodi:nodetypes="sssscsccssssscscssscsscssssscsccccccccscccscsssscscssccccccccsccccccccccccssccscc" /><g
       id="g5107513"
       style="fill:#646464;fill-opacity:1"><text
         xml:space="preserve"
         style="font-style:normal;font-variant:normal;font-weight:bold;font-stretch:normal;font-size:3.52778px;font-family:'Palatino Linotype';-inkscape-font-specification:'Palatino Linotype, Bold';font-variant-ligatures:normal;font-variant-caps:normal;font-variant-numeric:normal;font-variant-east-asian:normal;fill:#646464;fill-opacity:1;stroke:none;stroke-width:0.0899999"
         x="0.67013848"
         y="15.772191"
         id="text5086695"><tspan
           sodipodi:role="line"
           id="tspan5086693"
           style="font-style:normal;font-variant:normal;font-weight:bold;font-stretch:normal;font-size:3.52778px;font-family:'Palatino Linotype';-inkscape-font-specification:'Palatino Linotype, Bold';font-variant-ligatures:normal;font-variant-caps:normal;font-variant-numeric:normal;font-variant-east-asian:normal;fill:#646464;fill-opacity:1;stroke:none;stroke-width:0.09"
           x="0.67013848"
           y="15.772191">U</tspan></text><rect
         style="fill:#646464;fill-opacity:1;stroke:none;stroke-width:0.0899999"
         id="rect5087177"
         width="2.6087539"
         height="0.52653748"
         x="0.76587278"
         y="16.059393" /></g><g
       id="g5107508"
       style="fill:#646464;fill-opacity:1"
       transform="matrix(1.101387,0,0,1.101387,-0.19296476,-3.7731919)"><text
         xml:space="preserve"
         style="font-style:normal;font-variant:normal;font-weight:bold;font-stretch:normal;font-size:3.88056px;font-family:Georgia;-inkscape-font-specification:'Georgia, Bold';font-variant-ligatures:normal;font-variant-caps:normal;font-variant-numeric:normal;font-variant-east-asian:normal;fill:#646464;fill-opacity:1;stroke:none;stroke-width:0.0899999"
         x="0.89375293"
         y="37.143738"
         id="text5087181"><tspan
           sodipodi:role="line"
           id="tspan5087179"
           style="font-style:normal;font-variant:normal;font-weight:bold;font-stretch:normal;font-size:3.88056px;font-family:Georgia;-inkscape-font-specification:'Georgia, Bold';font-variant-ligatures:normal;font-variant-caps:normal;font-variant-numeric:normal;font-variant-east-asian:normal;fill:#646464;fill-opacity:1;stroke:none;stroke-width:0.09"
           x="0.89375293"
           y="37.143738">S</tspan></text><rect
         style="fill:#646464;fill-opacity:1;stroke:none;stroke-width:0.0842223"
         id="rect5087183"
         width="3.3506932"
         height="0.35900283"
         x="0.48688325"
         y="35.683792" /></g><path
       style="fill:#646464;fill-opacity:1;stroke:none;stroke-width:0.0724938"
       d="m 0.92348646,43.475108 h -0.7518479 l 0.3607725,-0.693881 z"
       id="path5087189"
       sodipodi:nodetypes="cccc" /><g
       id="g5107503"
       style="fill:#646464;fill-opacity:1"><text
         xml:space="preserve"
         style="font-style:italic;font-variant:normal;font-weight:bold;font-stretch:normal;font-size:3.88056px;font-family:Georgia;-inkscape-font-specification:'Georgia, Bold Italic';font-variant-ligatures:normal;font-variant-caps:normal;font-variant-numeric:normal;font-variant-east-asian:normal;fill:#646464;fill-opacity:1;stroke:none;stroke-width:0.0899999"
         x="1.1792042"
         y="45.769188"
         id="text5087187"><tspan
           sodipodi:role="line"
           id="tspan5087185"
           style="font-style:italic;font-variant:normal;font-weight:bold;font-stretch:normal;font-size:3.88056px;font-family:Georgia;-inkscape-font-specification:'Georgia, Bold Italic';font-variant-ligatures:normal;font-variant-caps:normal;font-variant-numeric:normal;font-variant-east-asian:normal;fill:#646464;fill-opacity:1;stroke:none;stroke-width:0.09"
           x="1.1792042"
           y="45.769188">A</tspan></text><rect
         style="fill:#646464;fill-opacity:1;stroke:none;stroke-width:0.0724938"
         id="rect5087191"
         width="0.32772854"
         height="2.2169871"
         x="0.37323207"
         y="43.318886" /></g><path
       style="fill:#646464;fill-opacity:1;stroke:none;stroke-width:0.0724938"
       d="m 0.91384736,45.451251 h -0.7518479 l 0.3607725,0.693881 z"
       id="path5087193"
       sodipodi:nodetypes="cccc" /><g
       id="g5107498"
       style="stroke:#646464;stroke-opacity:1"><path
         style="fill:#000000;fill-opacity:1;stroke:#646464;stroke-width:0.301625;stroke-dasharray:none;stroke-opacity:1"
         d="M 0.499245,51.688771 H 3.6808733"
         id="path5087195" /><path
         style="fill:#000000;fill-opacity:1;stroke:#646464;stroke-width:0.271659;stroke-dasharray:none;stroke-opacity:1"
         d="M 1.0661841,52.25571 H 3.6470262"
         id="path5087197" /><path
         style="fill:#000000;fill-opacity:1;stroke:#646464;stroke-width:0.301625;stroke-dasharray:none;stroke-opacity:1"
         d="M 0.4653979,52.78034 H 3.6470262"
         id="path5088651" /><path
         style="fill:#000000;fill-opacity:1;stroke:#646464;stroke-width:0.266715;stroke-dasharray:none;stroke-opacity:1"
         d="M 1.1338784,53.279585 H 3.6216409"
         id="path5088653" /><path
         style="fill:#000000;fill-opacity:1;stroke:#646464;stroke-width:0.301625;stroke-dasharray:none;stroke-opacity:1"
         d="M 0.4569361,53.821139 H 3.6385645"
         id="path5088655" /><path
         style="fill:#000000;fill-opacity:1;stroke:#646464;stroke-width:0.266715;stroke-dasharray:none;stroke-opacity:1"
         d="M 1.150802,54.345769 H 3.6385645"
         id="path5088657" /></g><text
       xml:space="preserve"
       style="font-style:italic;font-variant:normal;font-weight:bold;font-stretch:normal;font-size:3.88056px;font-family:Georgia;-inkscape-font-specification:'Georgia, Bold Italic';font-variant-ligatures:normal;font-variant-caps:normal;font-variant-numeric:normal;font-variant-east-asian:normal;fill:#646464;fill-opacity:1;stroke:none;stroke-width:0.0899999"
       x="0.84073311"
       y="58.563396"
       id="text5088661"><tspan
         sodipodi:role="line"
         id="tspan5088659"
         style="font-style:italic;font-variant:normal;font-weight:bold;font-stretch:normal;font-size:3.88056px;font-family:Georgia;-inkscape-font-specification:'Georgia, Bold Italic';font-variant-ligatures:normal;font-variant-caps:normal;font-variant-numeric:normal;font-variant-east-asian:normal;fill:#646464;fill-opacity:1;stroke:none;stroke-width:0.09"
         x="0.84073311"
         y="58.563396">A</tspan></text><path
       style="fill:#646464;fill-opacity:1;stroke-width:0.00627737"
       d="M 0.790957,57.636401 C 0.771271,57.630101 0.74302,57.617741 0.728183,57.608931 0.68894,57.585621 0.2442716,57.136973 0.2278792,57.104154 c -0.0312,-0.06247 -0.039372,-0.13404 -0.022639,-0.198284 0.016561,-0.06358 0.038829,-0.0976 0.1136757,-0.173678 l 0.071184,-0.07235 0.3999353,0.399852 0.3999353,0.399851 0.2452516,0.0019 c 0.2322704,0.0018 0.2463543,0.0026 0.2660863,0.01446 0.060327,0.03635 0.060123,0.12322 -3.761e-4,0.160107 -0.019899,0.01213 -0.032139,0.01246 -0.4473194,0.01216 -0.3952784,-2.9e-4 -0.4295093,-0.0012 -0.4626562,-0.01176 z M 0.920914,56.920349 0.525479,56.524876 0.8707137,56.179351 c 0.1898795,-0.19004 0.3576494,-0.35383 0.3728225,-0.363978 0.085847,-0.05742 0.1983405,-0.06444 0.2909795,-0.01816 0.03297,0.01647 0.4815333,0.460944 0.5049335,0.500332 0.035314,0.05944 0.04831,0.141306 0.032981,0.207796 -0.017721,0.07686 -0.016735,0.07573 -0.3942302,0.454241 -0.195404,0.195932 -0.3567583,0.35624 -0.358565,0.35624 -0.00181,0 -0.1812306,-0.177962 -0.3987197,-0.395472 z"
       id="path5090127"
       sodipodi:nodetypes="csssscccscssccccssssssssc" /><path
       style="fill:#646464;fill-opacity:1;stroke-width:0.0239344"
       d="m 0.04929353,88.857583 c -0.006276,-0.01646 -0.008629,-0.956179 -0.005234,-2.088275 l 0.006178,-2.058357 2.08827567,-0.0061 2.0882761,-0.0061 v 2.094391 2.094391 H 2.1437477 c -1.64439273,0 -2.0854465,-0.0063 -2.09445509,-0.02992 z M 3.8199071,86.793243 V 85.129802 H 2.1444996 0.46909192 v 1.663441 1.663439 H 2.1444996 3.8199071 Z m -2.90771815,1.358453 c -0.0524847,-0.0054 -0.1034799,-0.02239 -0.11332214,-0.03787 -0.009843,-0.01547 -0.0180594,-0.20548 -0.0182614,-0.422234 L 0.78023909,87.297491 0.90702825,87.422706 1.0338178,87.54792 1.2693381,87.3082 c 0.1295365,-0.131846 0.2423859,-0.23972 0.2507766,-0.23972 0.00839,0 0.092493,0.07809 0.1868921,0.173525 l 0.1716365,0.173523 -0.2378376,0.250779 -0.2378381,0.250778 0.1246206,0.126189 0.124621,0.126188 -0.3222969,-0.004 c -0.177263,-0.0022 -0.36523855,-0.0083 -0.41772335,-0.01375 z M 2.8148459,88.037645 2.9450336,87.905821 2.7123072,87.672217 c -0.1279993,-0.128481 -0.232726,-0.241887 -0.232726,-0.252011 0,-0.01007 0.062602,-0.07994 0.1391159,-0.155146 0.2407856,-0.236667 0.193619,-0.240708 0.4569743,0.03916 l 0.2316082,0.24613 0.1246743,-0.124675 0.1246746,-0.124673 v 0.41881 0.41881 l -0.1615569,0.01526 c -0.088856,0.0083 -0.2850496,0.01534 -0.4359853,0.01542 l -0.274428,1.7e-4 0.1301876,-0.131823 z M 1.2710449,86.207 1.0327496,85.967807 l -0.12743325,0.125504 -0.12743316,0.125505 0.007161,-0.430818 0.007161,-0.430819 0.43081901,-0.0064 0.4308191,-0.0064 -0.1240018,0.124195 -0.1240021,0.124197 0.2394121,0.252639 0.2394122,0.252638 -0.179869,0.174136 c -0.098928,0.09577 -0.1833759,0.174135 -0.1876623,0.174135 -0.00427,0 -0.1150266,-0.107632 -0.2460886,-0.239194 z m 1.3769648,0.06058 -0.1774215,-0.178613 0.1421194,-0.14976 c 0.078164,-0.08237 0.1836777,-0.191643 0.2344718,-0.242837 l 0.092353,-0.09307 -0.1280056,-0.129616 -0.1280052,-0.129616 0.4305697,0.0065 0.4305699,0.0065 0.00654,0.412869 c 0.00359,0.227076 0.00298,0.412868 -0.00138,0.412868 -0.00437,0 -0.06099,-0.04945 -0.1258747,-0.109861 L 3.3059871,85.963118 3.0719615,86.204617 c -0.128714,0.132825 -0.2368438,0.2415 -0.2402886,0.2415 -0.00344,0 -0.086104,-0.08038 -0.1836849,-0.178613 z"
       id="path5091625"
       sodipodi:nodetypes="sscccccsssccccccccccsscccsssccccccccccsssscccccsscccccccccccccccssscccssccccccsscsscc" /><path
       style="fill:#646464;fill-opacity:1;stroke-width:0.00804809"
       d="M 0.2265083,84.3936 C 0.2132291,84.3919 0.1830926,84.385 0.1595375,84.37832 0.1231273,84.36809 0.1149783,84.3621 0.105149,84.33857 c -0.0137103,-0.03281 -0.005307,-0.084 0.018007,-0.109769 0.0127557,-0.0141 0.0209078,-0.01564 0.0590742,-0.01115 0.15443281,0.01794 0.18091358,0.01457 0.22201983,-0.02835 0.0199614,-0.02084 0.0234574,-0.03093 0.0234574,-0.06769 0,-0.03652 -0.003542,-0.04689 -0.0229094,-0.06712 -0.0244716,-0.02554 -0.072336,-0.04153 -0.12434396,-0.04153 -0.0464079,0 -0.0740687,-0.02824 -0.0740687,-0.07562 0,-0.05496 0.0223889,-0.07608 0.0908962,-0.08572 0.0772004,-0.01081 0.11537095,-0.03205 0.12686615,-0.07041 0.0112103,-0.03742 -0.004126,-0.08163 -0.0353828,-0.102123 -0.0309065,-0.02025 -0.0985105,-0.02412 -0.15142603,-0.0087 -0.0797644,0.02327 -0.1114326,0.0015 -0.1114326,-0.07648 0,-0.03429 0.003706,-0.04862 0.0153443,-0.05913 0.0429508,-0.03888 0.24555983,-0.05517 0.32807092,-0.0264 0.0539512,0.01881 0.10862466,0.06746 0.13476982,0.119939 0.0446444,0.08959 0.0196596,0.219392 -0.0522525,0.271485 l -0.0306344,0.02218 0.0347186,0.02447 c 0.0237643,0.01675 0.0420229,0.03935 0.0578682,0.07164 0.0198464,0.04043 0.0230828,0.05637 0.0226825,0.111551 -0.001025,0.138458 -0.0779866,0.226279 -0.2257907,0.257593 -0.052002,0.01104 -0.12916501,0.01371 -0.18417709,0.0064 z m 0.9729189,-0.02641 c -0.00935,-0.0038 -0.02474,-0.01671 -0.034204,-0.02874 -0.016785,-0.02134 -0.017206,-0.02836 -0.017206,-0.28625 v -0.264375 l 0.023483,-0.02628 0.023483,-0.02627 1.4534447,-0.0021 c 1.6105226,-0.0023 1.4986296,-0.006 1.5219367,0.04981 0.017248,0.04128 0.017248,0.499037 0,0.540318 -0.023206,0.05554 0.086614,0.05183 -1.5110608,0.05126 -0.7935836,-2.79e-4 -1.4505277,-0.0036 -1.4598756,-0.0074 z M 0.12731,82.931933 c -0.0145776,-0.01552 -0.0174999,-0.02817 -0.0174999,-0.07581 0,-0.057 1.2523e-4,-0.05732 0.038689,-0.100075 0.20030528,-0.222126 0.27516993,-0.337858 0.27518226,-0.425407 7.69e-6,-0.05207 -0.0141435,-0.07692 -0.0530992,-0.09318 -0.0368567,-0.0154 -0.073228,-0.01381 -0.11477075,0.0052 -0.0439259,0.01993 -0.0745306,0.02021 -0.0983811,8.94e-4 -0.0150334,-0.01218 -0.0191607,-0.02476 -0.021772,-0.06639 -0.002894,-0.04589 -0.00119,-0.05327 0.0158474,-0.06919 0.0311876,-0.02913 0.11122009,-0.04623 0.21584184,-0.0461 0.0799061,9.5e-5 0.0971966,0.0025 0.12653399,0.01797 0.0764428,0.04019 0.11708244,0.0972 0.13122723,0.184115 0.018279,0.11231 -0.0300083,0.232514 -0.15905338,0.395945 -0.0432228,0.05473 -0.0835561,0.106354 -0.0896296,0.114691 -0.0106733,0.01466 -0.007236,0.01517 0.10297913,0.01517 0.11032824,0 0.11466047,6.38e-4 0.1337749,0.01974 0.0278917,0.02788 0.0285302,0.09796 0.00115,0.123708 -0.0182113,0.01711 -0.0236791,0.0175 -0.24406449,0.0175 -0.22524042,0 -0.22545207,-1.5e-5 -0.24293591,-0.01863 z m 1.0649694,-0.07924 c -0.044273,-0.02434 -0.043891,-0.02166 -0.044085,-0.309485 -1.704e-4,-0.25679 4.174e-4,-0.267279 0.01635,-0.287526 0.0091,-0.01156 0.029915,-0.02489 0.046276,-0.02961 0.020766,-0.006 0.4646405,-0.0079 1.4703573,-0.0062 1.389146,0.0023 1.4413974,0.0029 1.462684,0.01735 0.036346,0.02465 0.039489,0.0525 0.036771,0.32573 l -0.00252,0.252171 -0.026281,0.02347 -0.026281,0.02347 -1.4585903,-2.47e-4 c -1.0451392,-1.7e-4 -1.4631518,-0.0028 -1.4746855,-0.0091 z M 0.26102904,81.50703 c -0.0277378,-0.02108 -0.0304979,-0.05106 -0.0304979,-0.331596 0,-0.152425 -0.002217,-0.277135 -0.004876,-0.277135 -0.00269,0 -0.0156339,0.0091 -0.0287858,0.02012 -0.0347012,0.02921 -0.066943,0.02663 -0.0995256,-0.0079 -0.0315377,-0.03344 -0.0410477,-0.06786 -0.0262904,-0.09515 0.0110517,-0.02046 0.16662499,-0.157236 0.19717584,-0.173363 0.009669,-0.0051 0.0398252,-0.0092 0.0670159,-0.0092 0.0439105,0 0.0520666,0.0026 0.0729611,0.02353 l 0.0235262,0.02353 v 0.391351 c 0,0.474353 0.006292,0.447156 -0.10327131,0.446633 -0.0312134,-1.49e-4 -0.0594263,-0.0046 -0.0674347,-0.01069 z M 1.1994272,81.389387 c -0.00935,-0.0038 -0.02474,-0.01671 -0.034204,-0.02874 -0.016771,-0.02132 -0.017206,-0.02846 -0.017206,-0.281976 0,-0.177359 0.0029,-0.266496 0.00916,-0.280209 0.02181,-0.04786 -0.073128,-0.04503 1.5075062,-0.04503 1.6032152,0 1.482286,-0.0043 1.5060237,0.05259 0.016925,0.04051 0.016636,0.498861 -3.404e-4,0.539496 -0.023206,0.05554 0.086614,0.05183 -1.5110606,0.05125 -0.7935836,-2.78e-4 -1.4505279,-0.0036 -1.4598761,-0.0074 z"
       id="path5091639" /><g
       id="g5107490"
       style="stroke:#646464;stroke-opacity:1"><path
         style="fill:#000000;fill-opacity:1;stroke:#646464;stroke-width:0.301625;stroke-dasharray:none;stroke-opacity:1"
         d="M 3.7480769,94.117803 H 0.56644834"
         id="path5091672" /><path
         style="fill:#000000;fill-opacity:1;stroke:#646464;stroke-width:0.271659;stroke-dasharray:none;stroke-opacity:1"
         d="M 3.1811377,94.684742 H 0.60029534"
         id="path5091674" /><path
         style="fill:#000000;fill-opacity:1;stroke:#646464;stroke-width:0.301625;stroke-dasharray:none;stroke-opacity:1"
         d="M 3.781924,95.209372 H 0.60029534"
         id="path5091676" /><path
         style="fill:#000000;fill-opacity:1;stroke:#646464;stroke-width:0.266715;stroke-dasharray:none;stroke-opacity:1"
         d="M 3.1134434,95.708617 H 0.62568134"
         id="path5091678" /><path
         style="fill:#000000;fill-opacity:1;stroke:#646464;stroke-width:0.301625;stroke-dasharray:none;stroke-opacity:1"
         d="M 3.7903858,96.250171 H 0.60875734"
         id="path5091680" /><path
         style="fill:#000000;fill-opacity:1;stroke:#646464;stroke-width:0.266715;stroke-dasharray:none;stroke-opacity:1"
         d="M 3.0965198,96.774801 H 0.60875734"
         id="path5091682" /></g><g
       id="g5107482"
       style="stroke:#646464;stroke-opacity:1"><path
         style="fill:#a2f5fb;fill-opacity:1;stroke:#646464;stroke-width:0.301625;stroke-dasharray:none;stroke-opacity:1"
         d="M 3.7326051,98.268429 H 0.55097662"
         id="path5091684" /><path
         style="fill:#a2f5fb;fill-opacity:1;stroke:#646464;stroke-width:0.301625;stroke-dasharray:none;stroke-opacity:1"
         d="M 3.7241434,98.75075 H 0.54251482"
         id="path5092490" /><path
         style="fill:#a2f5fb;fill-opacity:1;stroke:#646464;stroke-width:0.301625;stroke-dasharray:none;stroke-opacity:1"
         d="M 3.7326051,99.300766 H 0.55097662"
         id="path5092492" /><path
         style="fill:#a2f5fb;fill-opacity:1;stroke:#646464;stroke-width:0.301625;stroke-dasharray:none;stroke-opacity:1"
         d="M 3.7326051,99.850781 H 0.55097662"
         id="path5092494" /><path
         style="fill:#a2f5fb;fill-opacity:1;stroke:#646464;stroke-width:0.301625;stroke-dasharray:none;stroke-opacity:1"
         d="M 3.7241434,100.33311 H 0.54251482"
         id="path5092496" /><path
         style="fill:#a2f5fb;fill-opacity:1;stroke:#646464;stroke-width:0.301625;stroke-dasharray:none;stroke-opacity:1"
         d="M 3.7326051,100.88312 H 0.55097662"
         id="path5092498" /></g><text
       xml:space="preserve"
       style="font-style:italic;font-variant:normal;font-weight:bold;font-stretch:normal;font-size:3.88056px;font-family:Georgia;-inkscape-font-specification:'Georgia, Bold Italic';font-variant-ligatures:normal;font-variant-caps:normal;font-variant-numeric:normal;font-variant-east-asian:normal;fill:#646464;fill-opacity:1;stroke:none;stroke-width:0.0899999"
       x="1.1443608"
       y="105.14934"
       id="text5092502"><tspan
         sodipodi:role="line"
         id="tspan5092500"
         style="font-style:italic;font-variant:normal;font-weight:bold;font-stretch:normal;font-size:3.88056px;font-family:Georgia;-inkscape-font-specification:'Georgia, Bold Italic';font-variant-ligatures:normal;font-variant-caps:normal;font-variant-numeric:normal;font-variant-east-asian:normal;fill:#646464;fill-opacity:1;stroke:none;stroke-width:0.09"
         x="1.1443608"
         y="105.14934">I</tspan></text><path
       style="fill:#646464;fill-opacity:1;stroke-width:0.0120207"
       d="m 3.7769459,113.39853 0.00326,-0.2374 0.2374077,-0.004 0.2374074,-0.004 v -0.16702 -0.16802 H 4.0146006 3.7741877 v -0.24043 -0.24041 H 3.6058984 3.43761 v 0.24041 0.24043 H 3.1972043 2.9567915 v 0.16828 0.16829 h 0.2404128 0.2404129 v 0.24041 0.24041 h 0.1680344 0.168035 z m -0.5557006,0.0631 v -0.0902 H 2.9808329 2.7404201 v -0.36015 -0.36014 l -0.1038572,-0.004 -0.1038572,-0.004 -0.2503049,-0.39052 c -0.1376676,-0.21478 -0.2551141,-0.39212 -0.2609923,-0.39408 -0.011923,-0.004 -0.1985634,0.28071 -0.1985634,0.30286 0,0.007 0.045055,0.0842 0.1001187,0.16978 0.055065,0.0856 0.1235474,0.19221 0.1521825,0.23683 l 0.052065,0.0811 h -0.094618 -0.094618 l -0.3272134,-0.51132 c -0.1799676,-0.28097 -0.32891,-0.51086 -0.3309837,-0.51086 -0.00206,0 -0.1512121,0.22989 -0.33141949,0.51086 l -0.32764984,0.51088 h -0.082105 -0.0821051 v -0.95569 -0.95568 l 1.42745073,0.003 1.4274501,0.003 0.00311,0.69452 0.00311,0.69451 0.171196,-0.004 0.1711963,-0.004 0.0031,-0.78916 c 0.0034,-0.86929 0.00411,-0.85981 -0.067979,-0.90832 l -0.040842,-0.0275 H 1.8869854 0.21967288 l -0.0408468,0.0274 c -0.0233382,0.0157 -0.0469927,0.0453 -0.0551919,0.0692 -0.0206888,0.0601 -0.0206888,2.89617 0,2.95624 0.008197,0.0238 0.031856,0.0534 0.0551919,0.0692 l 0.0408468,0.0274 H 1.7204742 3.2212759 Z m -0.3425879,-1.80132 c 0.079106,-0.037 0.1441149,-0.11044 0.1676102,-0.18956 0.023329,-0.0786 0.023329,-0.0988 0,-0.17738 -0.021793,-0.0734 -0.084101,-0.14798 -0.1547697,-0.18531 -0.076952,-0.0406 -0.198309,-0.0368 -0.280908,0.01 -0.1127783,0.0624 -0.1669593,0.16647 -0.1551309,0.29818 0.018493,0.20597 0.236553,0.3323 0.4231984,0.24519 z"
       id="path5092561"
       sodipodi:nodetypes="cccccccccccccccccccccccccccccccccscssscccsssccccccccccccccccscscccccsssccss" /><g
       id="g5107474"
       style="stroke:#646464;stroke-opacity:1"
       transform="matrix(1.0577608,0,0,1.0577608,-0.11057072,-6.8002814)"><path
         style="fill:#000000;fill-opacity:1;stroke:#646464;stroke-width:0.301625;stroke-dasharray:none;stroke-opacity:1"
         d="M 3.8049688,115.52369 H 0.6233403"
         id="path5092563" /><path
         style="fill:#000000;fill-opacity:1;stroke:#646464;stroke-width:0.266715;stroke-dasharray:none;stroke-opacity:1"
         d="M 3.1111028,116.04832 H 0.6233403"
         id="path5092565" /><path
         style="fill:#000000;fill-opacity:1;stroke:#646464;stroke-width:0.301625;stroke-dasharray:none;stroke-opacity:1"
         d="M 3.8049687,114.98213 H 0.6233403"
         id="path5092567" /><path
         style="fill:#000000;fill-opacity:1;stroke:#646464;stroke-width:0.918626;stroke-dasharray:none;stroke-opacity:1"
         d="M 4.0229907,116.85814 H 0.2568634"
         id="path5092571" /></g><text
       xml:space="preserve"
       style="font-style:italic;font-variant:normal;font-weight:bold;font-stretch:normal;font-size:3.88056px;font-family:Georgia;-inkscape-font-specification:'Georgia, Bold Italic';font-variant-ligatures:normal;font-variant-caps:normal;font-variant-numeric:normal;font-variant-east-asian:normal;fill:#646464;fill-opacity:1;stroke:none;stroke-width:0.0899999"
       x="0.79286599"
       y="126.19953"
       id="text5092575"><tspan
         sodipodi:role="line"
         id="tspan5092573"
         style="font-style:italic;font-variant:normal;font-weight:bold;font-stretch:normal;font-size:3.88056px;font-family:Georgia;-inkscape-font-specification:'Georgia, Bold Italic';font-variant-ligatures:normal;font-variant-caps:normal;font-variant-numeric:normal;font-variant-east-asian:normal;fill:#646464;fill-opacity:1;stroke:none;stroke-width:0.09"
         x="0.79286599"
         y="126.19953">A</tspan></text><path
       style="fill:#646464;fill-opacity:1;stroke-width:0.00436923"
       d="m 3.4221171,134.83743 c -0.1528696,-0.0188 -0.2751052,-0.0611 -0.4193438,-0.14503 l -0.06107,-0.0356 -1.380777,-1.7e-4 -1.38077717,-1.7e-4 -0.0151029,-0.0205 c -0.00831,-0.0113 -0.017743,-0.0303 -0.0209689,-0.0424 -0.011158,-0.0417 -0.013845,-0.30566 -0.0140099,-1.37628 l -1.6399e-4,-1.06599 0.0315679,-0.0318 0.0315679,-0.0318 H 2.1244548 4.0558712 l 0.03157,0.0318 0.03157,0.0318 v 0.54754 0.54756 l 0.044859,0.0487 c 0.07146,0.0776 0.1081488,0.13001 0.1508816,0.21531 0.04687,0.0937 0.07322,0.17273 0.0869,0.2611 0.01063,0.0687 0.01064,0.235 1.31e-5,0.30297 -0.02837,0.18139 -0.1430166,0.39016 -0.2925971,0.53276 -0.1180667,0.11255 -0.3194411,0.20097 -0.5156885,0.22639 -0.04631,0.006 -0.1368506,0.008 -0.1712685,0.004 z m 0.1351256,-0.20696 c 0.1599175,-0.0152 0.3049521,-0.0827 0.4250697,-0.1978 0.1303036,-0.12492 0.2077074,-0.28145 0.2243163,-0.45365 0.01425,-0.14771 -0.04393,-0.35413 -0.1328985,-0.47156 -0.04366,-0.0576 -0.1232467,-0.13162 -0.1888895,-0.17563 -0.1947865,-0.13061 -0.3987748,-0.15832 -0.6146602,-0.0835 -0.05777,0.02 -0.1343826,0.0598 -0.1864615,0.0968 -0.05244,0.0373 -0.1249115,0.1096 -0.1631274,0.16282 -0.04076,0.0567 -0.08769,0.15227 -0.101281,0.2061 -0.02753,0.10906 -0.03214,0.29239 -0.0096,0.38133 0.07152,0.28215 0.336809,0.50627 0.6331612,0.53493 0.05281,0.005 0.061879,0.005 0.1143646,1.4e-4 z m -0.09555,-0.25104 c -0.03426,-0.0122 -0.055899,-0.0364 -0.06098,-0.0681 -0.0028,-0.0175 -0.0111,-0.2106 -0.01128,-0.26238 l -8.61e-5,-0.0247 -0.1409076,-0.002 c -0.1145486,-9.9e-4 -0.1437685,-0.003 -0.1561995,-0.009 -0.02174,-0.0104 -0.05522,-0.0471 -0.06091,-0.0682 -0.010319,-0.0383 0.0138,-0.0927 0.04863,-0.10953 0.03156,-0.0153 0.05649,-0.0181 0.1853105,-0.021 l 0.1227776,-0.003 0.0027,-0.12059 c 0.0029,-0.13159 0.0081,-0.16922 0.02699,-0.1978 0.03087,-0.0466 0.087379,-0.054 0.1412696,-0.0186 0.03726,0.0247 0.037209,0.0243 0.03922,0.19229 l 0.0017,0.14471 0.1361056,0.002 c 0.0842,0.002 0.1431815,0.004 0.1546595,0.008 0.02345,0.007 0.056729,0.0356 0.06718,0.0586 0.01635,0.0361 0.0049,0.0842 -0.0273,0.1146 -0.02533,0.024 -0.0293,0.0246 -0.1857845,0.0266 l -0.1448345,0.002 -0.002,0.14045 c -0.0014,0.0939 -0.0038,0.14622 -0.0075,0.1579 -0.0031,0.0104 -0.01328,0.0251 -0.02368,0.0351 -0.02803,0.027 -0.06747,0.0352 -0.1050907,0.0218 z m -0.9711781,0.068 c 0.1340456,-0.002 0.2446023,-0.004 0.2456823,-0.005 0.0011,-0.001 -0.01722,-0.0402 -0.040659,-0.0869 -0.05874,-0.11702 -0.08809,-0.2063 -0.1035157,-0.31482 -0.0084,-0.0591 -0.0084,-0.18467 7.09e-5,-0.24416 0.02813,-0.19797 0.1174996,-0.37674 0.2590993,-0.51834 0.1349736,-0.13497 0.2531642,-0.20442 0.4194767,-0.24648 0.08282,-0.0209 0.1379656,-0.0276 0.2279134,-0.0277 0.1339646,-3e-5 0.2417592,0.0226 0.3712079,0.078 0.01975,0.008 0.03676,0.0154 0.0378,0.0154 0.0032,0 -3.089e-4,-0.70253 -0.00359,-0.70581 -0.0038,-0.004 0.01354,-0.0143 -0.5561724,0.34029 -0.6782989,0.42223 -0.7817286,0.48608 -1.0212219,0.63049 -0.1455446,0.0879 -0.1949294,0.11516 -0.2076184,0.11516 -0.02334,0 -0.06109,-0.0231 -1.13054081,-0.69023 -0.56242046,-0.35088 -0.62647307,-0.3901 -0.63297325,-0.3876 -0.00328,9.9e-4 -0.00756,0.008 -0.0095,0.0147 -0.00195,0.007 -0.00423,0.46803 -0.00508,1.02494 l -0.00154,1.01257 0.95371606,-2.5e-4 c 0.5245438,-1.4e-4 1.0633892,-0.002 1.1974348,-0.004 z m -0.2487549,-1.27944 c 0.31677,-0.18854 1.2144114,-0.74407 1.358681,-0.84086 l 0.02972,-0.0199 -0.01445,-0.003 c -0.00791,-10e-4 -0.340832,-0.005 -0.7397428,-0.008 -0.7389178,-0.005 -2.2610734,-0.002 -2.2610734,0.005 0,0.0133 1.1849195,0.74959 1.4543748,0.90371 0.05331,0.0305 0.05421,0.0308 0.06706,0.0242 0.0072,-0.004 0.054609,-0.0315 0.1054376,-0.0618 z"
       id="path5093329" /><g
       id="g5094967"
       transform="matrix(0.95757086,0,0,0.95757086,-7.7308217,6.6157608)"><circle
         style="fill:#ff0000;fill-opacity:1;stroke:none;stroke-width:1.24959;stroke-dasharray:none;stroke-opacity:1"
         id="path5093417"
         cx="10.223793"
         cy="149.02994"
         r="1.1743252" /><path
         id="circle5094147"
         style="fill:#1eb600;fill-opacity:1;stroke:none;stroke-width:0.151644;stroke-dasharray:none;stroke-opacity:1"
         d="m 11.57988,149.33979 a 1.3522593,1.3522593 0 0 1 -1.32245,1.07219 1.3522593,1.3522593 0 0 1 -0.250267,-0.0241 1.1641514,1.1641514 0 0 0 -0.0017,0.0408 1.1641514,1.1641514 0 0 0 1.164001,1.164 1.1641514,1.1641514 0 0 0 1.164001,-1.164 1.1641514,1.1641514 0 0 0 -0.753604,-1.08898 z" /><path
         id="circle5094163"
         style="fill:#3800ff;fill-opacity:1;stroke:none;stroke-width:0.139965;stroke-dasharray:none"
         d="m 10.14908,151.2653 c 0.006,0.0292 -0.1497134,0.34046 -0.777246,0.34046 -0.6275336,0 -1.1362501,-0.50872 -1.1362498,-1.13625 -3e-7,-0.62753 0.6702675,-1.09437 0.7233968,-1.0824 0.124789,0.332 0.30077,0.70863 0.854816,0.99688 0.039605,0.59099 0.224811,0.72961 0.335283,0.88131 z"
         sodipodi:nodetypes="cssccc" /><text
         xml:space="preserve"
         style="font-style:italic;font-variant:normal;font-weight:bold;font-stretch:normal;font-size:1.80918px;font-family:Georgia;-inkscape-font-specification:'Georgia, Bold Italic';font-variant-ligatures:normal;font-variant-caps:normal;font-variant-numeric:normal;font-variant-east-asian:normal;fill:#646464;fill-opacity:1;stroke:none;stroke-width:0.0419595"
         x="9.578393"
         y="149.57765"
         id="text5093359"><tspan
           sodipodi:role="line"
           id="tspan5093357"
           style="font-style:italic;font-variant:normal;font-weight:bold;font-stretch:normal;font-size:1.80918px;font-family:Georgia;-inkscape-font-specification:'Georgia, Bold Italic';font-variant-ligatures:normal;font-variant-caps:normal;font-variant-numeric:normal;font-variant-east-asian:normal;fill:#646464;fill-opacity:1;stroke:none;stroke-width:0.0419595"
           x="9.578393"
           y="149.57765">A</tspan></text></g><path
       style="fill:#646464;fill-opacity:1;stroke-width:0.00651427"
       d="m 1.9687682,156.649 c -0.4006348,-0.0402 -0.760201,-0.17897 -1.07378551,-0.41424 -0.4503634,-0.33789 -0.74333788,-0.84559 -0.8133723,-1.40951 -0.0111808,-0.09 -0.0111808,-0.38552 0,-0.47555 0.057644,-0.46416 0.26613931,-0.89193 0.59373101,-1.21816 0.338471,-0.33708 0.7571799,-0.5391 1.2445696,-0.60048 0.103567,-0.0131 0.4057324,-0.011 0.504856,0.003 0.2539661,0.037 0.4571346,0.0988 0.6673797,0.20342 0.5788207,0.28785 0.9888349,0.82101 1.1142463,1.44891 0.029834,0.14935 0.035852,0.21669 0.035852,0.40063 0,0.18395 -0.00598,0.25129 -0.035852,0.40063 -0.1025753,0.51356 -0.3982529,0.96992 -0.8272862,1.27684 -0.2756212,0.19718 -0.5782724,0.31825 -0.9282833,0.37136 -0.1038741,0.0157 -0.3793673,0.0229 -0.4820553,0.0127 z m -0.020639,-0.89385 c 0.054989,-0.17669 0.715796,-2.35647 0.718866,-2.37131 l 0.00375,-0.0181 -0.1487633,0.002 -0.1487622,0.002 -0.3664368,1.20839 c -0.2015398,0.66463 -0.3665567,1.21354 -0.3667038,1.2198 -2.469e-4,0.0108 0.010916,0.0115 0.1455356,0.0115 h 0.1458038 z m -0.6059917,-0.59605 0.096611,-0.096 -0.2398465,-0.23609 -0.23984661,-0.23611 0.24214441,-0.24077 0.2421442,-0.24078 -0.097675,-0.095 -0.097675,-0.095 -0.33783611,0.33404 -0.33783603,0.33403 0.33339993,0.33386 c 0.18337001,0.18361 0.33484091,0.33386 0.33660191,0.33386 0.00176,0 0.046676,-0.0434 0.099813,-0.0961 z m 2.0677031,-0.23777 0.3335993,-0.33386 -0.3389222,-0.33483 -0.338923,-0.33483 -0.09586,0.0938 -0.095859,0.0938 0.2412156,0.24318 0.2412165,0.2432 -0.2393591,0.23568 -0.2393582,0.23567 0.096017,0.096 c 0.052809,0.0529 0.097507,0.096 0.099326,0.096 0.00187,0 0.1534289,-0.15024 0.3369085,-0.33385 z"
       id="path5096449" /><g
       id="g5106535"
       style="fill:#000000;fill-opacity:1;stroke:#646464;stroke-opacity:1"
       transform="translate(-0.03384711,0.25385334)"><path
         style="fill:#000000;fill-opacity:1;stroke:#646464;stroke-width:0.301625;stroke-dasharray:none;stroke-opacity:1"
         d="M 3.7585848,157.62249 H 0.57695593"
         id="path5096516" /><path
         style="fill:#000000;fill-opacity:1;stroke:#646464;stroke-width:0.249328;stroke-dasharray:none;stroke-opacity:1"
         d="M 3.1916448,158.18943 H 1.0176728"
         id="path5096518" /><path
         style="fill:#000000;fill-opacity:1;stroke:#646464;stroke-width:0.303885;stroke-dasharray:none;stroke-opacity:1"
         d="M 3.7924318,158.71406 H 0.56293593"
         id="path5096520" /><path
         style="fill:#000000;fill-opacity:1;stroke:#646464;stroke-width:0.246721;stroke-dasharray:none;stroke-opacity:1"
         d="M 3.1957514,159.21331 H 1.0669923"
         id="path5096522" /><path
         style="fill:#000000;fill-opacity:1;stroke:#646464;stroke-width:0.301625;stroke-dasharray:none;stroke-opacity:1"
         d="M 3.8008938,159.75486 H 0.61926493"
         id="path5096524" /><path
         style="fill:#000000;fill-opacity:1;stroke:#646464;stroke-width:0.246026;stroke-dasharray:none;stroke-opacity:1"
         d="M 3.2147287,160.27949 H 1.0979354"
         id="path5096526" /></g><g
       id="g5096570"
       transform="matrix(0.05378335,0,0,0.05378335,-0.59579007,160.39025)"
       style="fill:#646464;fill-opacity:1"><circle
         cx="18.132"
         cy="26.545"
         r="7.131"
         id="circle5096546"
         style="fill:#646464;fill-opacity:1" /><rect
         x="33.618999"
         y="21.486"
         width="56.292"
         height="10.118"
         id="rect5096548"
         style="fill:#646464;fill-opacity:1" /><circle
         cx="18.132"
         cy="51.219002"
         r="7.131"
         id="circle5096550"
         style="fill:#646464;fill-opacity:1" /><rect
         x="33.618999"
         y="46.159"
         width="56.292"
         height="10.118"
         id="rect5096552"
         style="fill:#646464;fill-opacity:1" /><circle
         cx="18.132"
         cy="76.032997"
         r="7.131"
         id="circle5096554"
         style="fill:#646464;fill-opacity:1" /><rect
         x="33.618999"
         y="70.974998"
         width="56.292"
         height="10.117"
         id="rect5096556"
         style="fill:#646464;fill-opacity:1" /></g><path
       id="rect5098837"
       style="fill:none;stroke:none;stroke-width:0.0264583;stroke-dasharray:none;stroke-opacity:1"
       d="M -0.07443989,-0.03345028 4.2410667,-0.03768118 V 174.60496 l -4.2574253,0.0285 z"
       sodipodi:nodetypes="ccccc" /><rect
       style="fill:none;fill-opacity:1;stroke:none;stroke-width:0.0264583;stroke-dasharray:none;stroke-opacity:1"
       id="rect5102076"
       width="4.2601671"
       height="4.2601671"
       x="-0.058983564"
       y="-0.0029036228" /><rect
       style="fill:none;fill-opacity:1;stroke:none;stroke-width:0.0264583;stroke-dasharray:none;stroke-opacity:1"
       id="rect5102078"
       width="4.2601671"
       height="4.2601671"
       x="-0.0092801377"
       y="170.31502"
       inkscape:export-filename="..\..\Upload\jscripts\sceditor\themes\famfamfam.svg"
       inkscape:export-xdpi="88.286278"
       inkscape:export-ydpi="88.286278" /><text
       xml:space="preserve"
       style="font-style:normal;font-variant:normal;font-weight:bold;font-stretch:normal;font-size:3.88056px;font-family:Georgia;-inkscape-font-specification:'Georgia, Bold';font-variant-ligatures:normal;font-variant-caps:normal;font-variant-numeric:normal;font-variant-east-asian:normal;fill:#646464;fill-opacity:1;stroke:none;stroke-width:0.0899999"
       x="0.6731987"
       y="168.47923"
       id="text5096574"
       inkscape:export-filename="..\..\Upload\jscripts\sceditor\themes\famfamfam.svg"
       inkscape:export-xdpi="88.286278"
       inkscape:export-ydpi="88.286278"><tspan
         sodipodi:role="line"
         id="tspan5096572"
         style="font-style:normal;font-variant:normal;font-weight:bold;font-stretch:normal;font-size:3.88056px;font-family:Georgia;-inkscape-font-specification:'Georgia, Bold';font-variant-ligatures:normal;font-variant-caps:normal;font-variant-numeric:normal;font-variant-east-asian:normal;fill:#646464;fill-opacity:1;stroke:none;stroke-width:0.09"
         x="0.6731987"
         y="168.47923">B</tspan></text><g
       style="opacity:1;fill:#646464;fill-opacity:1;fill-rule:nonzero;stroke:none;stroke-width:0;stroke-linecap:butt;stroke-linejoin:miter;stroke-miterlimit:10;stroke-dasharray:none"
       transform="matrix(0.12506957,0,0,0.12506957,6.239765,125.09812)"
       id="g5109887"
       inkscape:export-filename="..\..\Upload\jscripts\sceditor\themes\famfamfam.svg"
       inkscape:export-xdpi="88.286278"
       inkscape:export-ydpi="88.286278">
	<path
   d="m -16.487066,88.090409 h -16.130511 -0.182775 -16.130512 c -0.544121,0 -0.985,0.441262 -0.985,0.985 v 21.944531 c 0,0.54374 0.440879,0.985 0.985,0.985 h 16.130512 0.182775 16.130511 c 0.543738,0 0.984998,-0.44088 0.984998,-0.985 V 89.075409 c 0,-0.543738 -0.440877,-0.985 -0.984998,-0.985 z m -28.216637,21.129681 c 0,0.28029 -0.22713,0.5078 -0.507794,0.5078 h -2.284694 c -0.280282,0 -0.507795,-0.22751 -0.507795,-0.5078 v -2.28507 c 0,-0.28028 0.227513,-0.50779 0.507795,-0.50779 h 2.285076 c 0.280282,0 0.507795,0.22713 0.507795,0.50779 v 2.28507 z m 0,-5.35325 c 0,0.28028 -0.22713,0.50779 -0.507794,0.50779 h -2.284694 c -0.280282,0 -0.507795,-0.22751 -0.507795,-0.50779 v -2.28507 c 0,-0.28029 0.227513,-0.5078 0.507795,-0.5078 h 2.285076 c 0.280282,0 0.507795,0.22713 0.507795,0.5078 v 2.28507 z m 0,-5.353256 c 0,0.280281 -0.22713,0.507794 -0.507794,0.507794 h -2.284694 c -0.280282,0 -0.507795,-0.227513 -0.507795,-0.507794 v -2.285076 c 0,-0.280281 0.227513,-0.507795 0.507795,-0.507795 h 2.285076 c 0.280282,0 0.507795,0.227131 0.507795,0.507795 v 2.285076 z m 0,-5.353258 c 0,0.280281 -0.22713,0.507795 -0.507794,0.507795 h -2.284694 c -0.280282,0 -0.507795,-0.227514 -0.507795,-0.507795 V 90.87525 c 0,-0.280281 0.227513,-0.507794 0.507795,-0.507794 h 2.285076 c 0.280282,0 0.507795,0.22713 0.507795,0.507794 v 2.285076 z m 16.310611,7.415404 -7.908674,4.56595 c -0.406464,0.23478 -0.914641,-0.0585 -0.914641,-0.52806 v -9.131892 c 0,-0.469557 0.508177,-0.762839 0.914641,-0.52806 l 7.908674,4.565945 c 0.406465,0.234779 0.406465,0.821347 0,1.056117 z m 10.979148,8.64436 c 0,0.28029 -0.227513,0.5078 -0.507794,0.5078 h -2.285077 c -0.280281,0 -0.507794,-0.22751 -0.507794,-0.5078 v -2.28507 c 0,-0.28028 0.227131,-0.50779 0.507794,-0.50779 h 2.285077 c 0.280281,0 0.507794,0.22713 0.507794,0.50779 z m 0,-5.35325 c 0,0.28028 -0.227513,0.50779 -0.507794,0.50779 h -2.285077 c -0.280281,0 -0.507794,-0.22751 -0.507794,-0.50779 v -2.28507 c 0,-0.28029 0.227131,-0.5078 0.507794,-0.5078 h 2.285077 c 0.280281,0 0.507794,0.22713 0.507794,0.5078 z m 0,-5.353256 c 0,0.280281 -0.227513,0.507794 -0.507794,0.507794 h -2.285077 c -0.280281,0 -0.507794,-0.227513 -0.507794,-0.507794 v -2.285076 c 0,-0.280281 0.227131,-0.507795 0.507794,-0.507795 h 2.285077 c 0.280281,0 0.507794,0.227131 0.507794,0.507795 z m 0,-5.353258 c 0,0.280281 -0.227513,0.507795 -0.507794,0.507795 h -2.285077 c -0.280281,0 -0.507794,-0.227514 -0.507794,-0.507795 V 90.87525 c 0,-0.280281 0.227131,-0.507794 0.507794,-0.507794 h 2.285077 c 0.280281,0 0.507794,0.22713 0.507794,0.507794 z"
   style="opacity:1;fill:#646464;fill-opacity:1;fill-rule:nonzero;stroke:none;stroke-width:0.382376;stroke-linecap:butt;stroke-linejoin:miter;stroke-miterlimit:10;stroke-dasharray:none"
   stroke-linecap="round"
   id="path5109885" />
</g><path
       id="path5112210"
       style="fill:#646464;fill-opacity:1;stroke-width:0.0190411"
       d="m 1.6391427,64.295299 c -1.23502505,0 -1.28482125,0.0017 -1.32808415,0.03669 l -0.0449585,0.03617 v 2.364714 2.364196 l 0.0449585,0.03669 h 5.167e-4 c 0.0440403,0.03553 0.0947108,0.03641 1.77715245,0.03152 l 1.7316772,-0.0052 0.045992,-0.05323 0.045992,-0.05323 V 67.207783 65.361901 H 3.4173288 2.9222685 V 64.8286 64.295299 Z m 1.5952515,0.01912 c -0.00402,0 -0.00723,0.16682 -0.00723,0.371036 l -5.168e-4,0.371554 h 0.333313 c 0.1832705,0 0.333313,-0.0046 0.333313,-0.01034 0,-0.01205 -0.6480215,-0.732255 -0.6588745,-0.732255 z m -0.9162231,1.172538 c 0.091818,0.02915 0.1658813,0.06681 0.1658813,0.08423 0,0.01032 -0.1332369,0.353266 -0.2966227,0.761711 -0.1633867,0.408445 -0.3027218,0.742137 -0.3095418,0.741557 -0.036244,-0.0031 -0.183029,-0.0727 -0.188619,-0.0894 -0.00357,-0.01072 0.1279804,-0.354856 0.2919718,-0.764812 0.2739615,-0.684881 0.3010774,-0.744668 0.3369304,-0.733288 z m 0.3849894,0.177767 0.083716,0.09147 c 0.045924,0.05015 0.1647017,0.178941 0.2640666,0.286287 l 0.1808675,0.195337 -0.1808675,0.19482 c -0.099365,0.107344 -0.2181387,0.236138 -0.2640666,0.286288 l -0.083716,0.09147 -0.085783,-0.07545 -0.085266,-0.07493 0.048059,-0.05426 c 0.026609,-0.02978 0.1100204,-0.120349 0.1855184,-0.201539 0.0755,-0.0812 0.1374593,-0.156504 0.1374593,-0.166914 0,-0.01041 -0.061961,-0.0852 -0.1374593,-0.166399 -0.075499,-0.08119 -0.1589105,-0.171758 -0.1855184,-0.201538 l -0.048059,-0.05426 0.085266,-0.07493 z m -1.2407511,0.0021 0.076998,0.06305 c 0.042162,0.03481 0.078936,0.07153 0.082166,0.08113 0.0032,0.0096 -0.075688,0.105653 -0.1751831,0.21394 -0.099494,0.108288 -0.1808676,0.204307 -0.1808676,0.212907 0,0.0086 0.081374,0.104103 0.1808676,0.21239 0.099498,0.108289 0.1784131,0.204341 0.1751831,0.213941 -0.0032,0.0096 -0.040004,0.04632 -0.082166,0.08113 l -0.076998,0.06305 -0.2552816,-0.278536 C 1.0665993,66.376428 0.95132945,66.2446 0.95132945,66.2373 c 0,-0.0073 0.11526985,-0.138612 0.25579835,-0.291972 z M 0.47590635,67.518875 H 1.0257435 c 0.1197928,0 0.209308,0.02829 0.2687175,0.08527 0.059896,0.05698 0.089917,0.138212 0.089917,0.243396 0,0.108106 -0.032416,0.192344 -0.097668,0.253215 -0.064766,0.06087 -0.1642286,0.09147 -0.29765625,0.09147 h -0.1808675 v 0.397392 h -0.3322794 z m 1.08313795,0 h 0.3307291 v 0.374654 h 0.3617351 v -0.374654 h 0.3322794 v 1.070736 H 2.2515085 V 68.156562 H 1.8897734 v 0.433049 H 1.5590443 Z m 1.2433349,0 h 0.5498373 c 0.1197927,0 0.209308,0.02829 0.2687174,0.08527 0.059896,0.05698 0.089917,0.138212 0.089917,0.243396 0,0.108106 -0.032415,0.192344 -0.097669,0.253215 -0.064766,0.06087 -0.1642285,0.09147 -0.2976562,0.09147 h -0.180867 v 0.397392 H 2.8023792 Z m -1.99419345,0.217558 v 0.238745 h 0.081132 c 0.0637921,0 0.1085497,-0.01064 0.13435875,-0.03256 0.025809,-0.0224 0.038757,-0.05121 0.038757,-0.08578 0,-0.0336 -0.011189,-0.06189 -0.03359,-0.08527 -0.0224,-0.02337 -0.0647629,-0.03514 -0.12660725,-0.03514 z m 2.32647295,0 v 0.238745 h 0.081132 c 0.063792,0 0.1085497,-0.01064 0.1343587,-0.03256 0.025809,-0.0224 0.038757,-0.05121 0.038757,-0.08578 0,-0.0336 -0.011189,-0.06189 -0.03359,-0.08527 -0.0224,-0.02337 -0.064763,-0.03514 -0.1266072,-0.03514 z"
       inkscape:export-filename="..\..\Upload\jscripts\sceditor\themes\famfamfam.svg"
       inkscape:export-xdpi="88.286278"
       inkscape:export-ydpi="88.286278" /><path
       id="path5116763"
       style="fill:#646464;fill-opacity:1;stroke:none;stroke-width:0.199741;stroke-opacity:1"
       d="m 1.1056142,59.438234 c -0.38249215,0.0096 -0.68781335,0.320488 -0.68781335,0.705383 v 1.171505 c 0,0.391003 0.3148964,0.7059 0.70590005,0.7059 h 1.5528768 c 0,0 -8.532e-4,0.538279 -0.083199,0.882633 0.4341914,-0.259513 0.5772258,-0.882633 0.5772258,-0.882633 0.3910037,0 0.7053832,-0.314897 0.7053832,-0.7059 v -1.171505 c 0,-0.391005 -0.3143795,-0.705383 -0.7053832,-0.705383 H 1.1237009 c -0.00611,0 -0.012015,-1.53e-4 -0.018087,0 z m -0.089917,0.466121 h 0.4547526 0.4547526 l -0.00413,0.406177 c -0.00366,0.366774 -0.00596,0.414571 -0.022738,0.489376 -0.052267,0.23379 -0.1919173,0.442348 -0.381372,0.568957 -0.086251,0.05765 -0.2163915,0.11781 -0.3064413,0.14211 -0.039952,0.01073 -0.07938,0.02188 -0.08785,0.02429 -0.011855,0.0034 -0.023003,-0.01213 -0.048576,-0.06666 -0.064381,-0.137303 -0.061844,-0.126865 -0.029972,-0.137976 0.047384,-0.01651 0.1418551,-0.08984 0.1896525,-0.147278 0.074372,-0.08937 0.1293187,-0.212849 0.1410767,-0.316777 l 0.0062,-0.05426 H 1.198115 1.0156972 v -0.453719 z m 1.2707234,0 h 0.4542358 0.4537191 v 0.370003 c -6.37e-5,0.416064 -0.00661,0.490577 -0.057361,0.638721 -0.080541,0.235241 -0.2379513,0.409477 -0.4738729,0.525549 -0.059922,0.02948 -0.1414369,0.06227 -0.1813843,0.07286 -0.039952,0.01062 -0.07938,0.02136 -0.08785,0.02377 -0.011855,0.0034 -0.023003,-0.01213 -0.048576,-0.06666 -0.064381,-0.137303 -0.062361,-0.126865 -0.030489,-0.137976 0.047384,-0.01651 0.1423706,-0.08984 0.1901692,-0.147278 0.074372,-0.08937 0.1293187,-0.212849 0.1410767,-0.316777 l 0.0062,-0.05426 H 2.4693552 2.2864206 v -0.453719 z"
       inkscape:export-filename="quote.svg"
       inkscape:export-xdpi="88.286278"
       inkscape:export-ydpi="88.286278" /><path
       id="path5127784"
       style="fill:#646464;fill-opacity:1;stroke-width:0.0190411"
       d="m 1.6991896,88.984988 c -1.23502396,0 -1.28482096,0.0017 -1.32808396,0.03669 l -0.04496,0.03617 v 2.364714 2.364197 l 0.04496,0.03669 h 5.17e-4 c 0.04404,0.03553 0.09471,0.03641 1.77715196,0.03152 l 1.731677,-0.0052 0.04599,-0.05323 0.04599,-0.05323 v -1.845838 -1.845882 h -0.49506 -0.49506 v -0.533301 -0.5333 z m 1.595252,0.01912 c -0.004,0 -0.0072,0.166821 -0.0072,0.371037 l -5.17e-4,0.371553 h 0.333308 c 0.183271,0 0.333313,-0.0046 0.333313,-0.01034 0,-0.01205 -0.648021,-0.732255 -0.658874,-0.732255 z m -0.225826,1.952335 c 0.179977,0 0.312656,0.01387 0.397908,0.04134 0.0862,0.02747 0.157622,0.06986 0.214457,0.12764 0.05778,0.05778 0.105771,0.136098 0.143661,0.234611 l -0.548804,0.05375 c -0.01421,-0.04831 -0.03764,-0.08372 -0.0708,-0.106454 -0.04547,-0.03031 -0.100435,-0.04547 -0.164848,-0.04547 -0.06536,0 -0.113348,0.01198 -0.14366,0.03566 -0.02937,0.02273 -0.04393,0.05056 -0.04393,0.08372 0,0.03694 0.01895,0.06477 0.05684,0.08372 0.03789,0.01895 0.120082,0.036 0.247013,0.05116 0.192292,0.02179 0.335654,0.05211 0.429431,0.09095 0.09378,0.03884 0.165201,0.09441 0.214458,0.166398 0.0502,0.07199 0.07545,0.150995 0.07545,0.237195 0,0.08715 -0.02654,0.171837 -0.07958,0.254248 -0.0521,0.08241 -0.135411,0.148147 -0.249081,0.197404 -0.112722,0.04831 -0.266337,0.07286 -0.46147,0.07286 -0.27565,0 -0.47217,-0.03972 -0.589629,-0.118339 -0.116511,-0.07862 -0.191638,-0.189934 -0.224792,-0.334863 l 0.574125,-0.05426 c 0.02368,0.0682 0.05711,0.116879 0.09973,0.146244 0.04263,0.02936 0.09949,0.04393 0.170532,0.04393 0.07767,0 0.137725,-0.01646 0.180351,-0.04961 0.03315,-0.02463 0.04961,-0.05504 0.04961,-0.09198 0,-0.04168 -0.02154,-0.0739 -0.06511,-0.09664 -0.03126,-0.0161 -0.114571,-0.03626 -0.24908,-0.05994 -0.200817,-0.03505 -0.340475,-0.06727 -0.419096,-0.09663 -0.07767,-0.03031 -0.143411,-0.08089 -0.197404,-0.151928 -0.05305,-0.07104 -0.07958,-0.151944 -0.07958,-0.24288 0,-0.09946 0.02903,-0.185357 0.08682,-0.257348 0.05778,-0.07199 0.137389,-0.125666 0.238745,-0.160714 0.101356,-0.03599 0.237222,-0.05374 0.407727,-0.05374 z m -2.64428296,0.03411 H 1.0268796 l 0.292488,0.956011 0.302824,-0.956014 h 0.583944 l -0.640788,1.508952 h -0.513147 z"
       inkscape:export-filename="New folder\dark theme icons\famfamfam.svg"
       inkscape:export-xdpi="88.286278"
       inkscape:export-ydpi="88.286278" /></g></svg>
